<svg xmlns="http://www.w3.org/2000/svg" viewBox="0 0 192 192" role="img" aria-label="SecureSmart app icon"><rect width="192" height="192" rx="42" fill="#102A43"/><path fill="#10B981" d="M96 21 163 49v49c0 42.2-26 65.8-67 73-41-7.2-67-30.8-67-73V49l67-28Z"/><path fill="#fff" d="M122.1 68.2C115.7 62.4 106.8 59 96.3 59c-19.5 0-33.4 9.4-33.4 24.2 0 16 13.7 20.2 30.6 24.3 14.8 3.5 21.4 5.2 21.4 13.2 0 7.1-7 11.2-18.2 11.2-12.1 0-22.5-4.5-30.2-13l-12.4 14.4c10.7 11.6 25.2 17.7 42.4 17.7 24.1 0 40.3-11.6 40.3-30.3 0-19.2-16.2-24.1-32.3-27.9-13.7-3.3-19.5-4.9-19.5-11.7 0-6.1 5.7-9.9 15.7-9.9 8.7 0 16.1 3.1 22.2 8.8l12.2-11.8Z"/></svg>
