<svg xmlns="http://www.w3.org/2000/svg" viewBox="0 0 64 64" role="img" aria-label="SecureSmart"><defs><linearGradient id="g" x1="5" y1="5" x2="59" y2="59" gradientUnits="userSpaceOnUse"><stop stop-color="#10B981"/><stop offset="1" stop-color="#1E3A8A"/></linearGradient></defs><path fill="url(#g)" d="M32 3 58 14v19c0 16.4-10.1 25.6-26 28C16.1 58.6 6 49.4 6 33V14L32 3Z"/><path fill="#fff" d="M40.1 20.1c-1.8-1.6-4.3-2.5-7.3-2.5-5.4 0-9.3 2.6-9.3 6.8 0 4.4 3.9 5.6 8.5 6.7 4.2 1 6.1 1.5 6.1 3.8 0 2-2.1 3.2-5.3 3.2-3.5 0-6.4-1.3-8.6-3.7l-3.5 4.1c3 3.3 7.1 5 12 5 6.8 0 11.4-3.2 11.4-8.4 0-5.2-4.4-6.6-9.1-7.7-4-1-5.6-1.4-5.6-3.4 0-1.8 1.6-2.9 4.5-2.9 2.5 0 4.7.9 6.5 2.6l3.7-3.6Z"/></svg>
